<?xml version="1.0" encoding="UTF-8" standalone="no"?> <!-- Created with Vectornator for iOS (http://vectornator.io/) --><!DOCTYPE svg PUBLIC "-//W3C//DTD SVG 1.1//EN" "http://www.w3.org/Graphics/SVG/1.1/DTD/svg11.dtd">
<svg style="fill-rule:evenodd;clip-rule:evenodd;stroke-linecap:round;stroke-linejoin:round;" xmlns:vectornator="http://vectornator.io" xmlns:xlink="http://www.w3.org/1999/xlink" xmlns="http://www.w3.org/2000/svg" xml:space="preserve" version="1.1" viewBox="0 0 122.88 110.28">
<metadata>
<vectornator:setting key="DynamicGuides" value="1"/>
<vectornator:setting key="Units" value="Points"/>
<vectornator:setting key="GuidesVisible" value="1"/>
<vectornator:setting key="GridSpacing" value="36"/>
<vectornator:setting key="SnapToGuides" value="1"/>
<vectornator:setting key="RulersVisible" value="1"/>
</metadata>
<defs/>
<g id="Untitled" vectornator:layerName="Untitled">
<path d="M22.9207+89.3678C20.2507+89.0278+17.8307+88.3978+15.6307+87.4878C13.3607+86.5478+11.3507+85.3378+9.58067+83.8578C7.90067+82.4578+6.43067+80.8678+5.18067+79.1378C1.84067+74.5378+0.0406663+68.9178+0.000666338+63.3178C-0.0393337+57.6578+1.72067+52.0278+5.52067+47.4678C6.75067+45.9878+8.20067+44.6278+9.86067+43.4278C11.7907+42.0278+14.0007+40.8478+16.5007+39.8778C18.2207+39.2078+20.0607+38.6478+22.0007+38.1978C24.2007+29.4578+28.8907+22.7278+34.9207+18.0578C40.5607+13.6878+47.3507+11.1378+54.3407+10.4678C61.3007+9.7978+68.4607+10.9778+74.8907+14.0678C81.9107+17.4378+88.0307+23.0478+92.0007+30.9378C93.6007+30.6878+95.2007+30.5578+96.7907+30.5778C103.511+30.6178+109.991+33.0278+115.091+38.5278C116.161+39.6778+117.171+40.9778+118.111+42.4278C121.311+47.3478+122.951+53.9178+122.881+60.3478C122.811+66.6578+121.111+72.9378+117.631+77.5678C115.361+80.5778+112.451+83.0378+108.961+84.9878C105.601+86.8678+103.323+88.4472+97.2807+89.3178C92.3328+89.65+86.1331+89.65+86.1331+89.65L86.1331+80.4369C86.1331+79.548+85.4124+78.8273+84.5234+78.8273L82.109+78.8273C80.6273+78.8273+79.4262+80.0284+79.4262+81.51L79.4262+89.6415C79.4262+89.6415+69.5067+89.6359+64.7941+89.6415L64.7941+80.4369C64.7941+79.548+64.0734+78.8273+63.1844+78.8273L60.77+78.8273C59.2883+78.8273+58.0872+80.0284+58.0872+81.51L58.0872+89.6414C53.4199+89.637+46.6644+89.6238+42.4726+89.6066L42.4726+80.4369C42.4726+79.548+41.752+78.8273+40.863+78.8273L38.4485+78.8273C36.9669+78.8273+35.7609+80.0284+35.7549+81.51L35.7223+89.5324C28.4818+89.4898+23.4379+89.4321+22.9207+89.3678Z" opacity="1" fill="#000000"/>
<path stroke="#000000" stroke-width="2.22893" d="M39.1192+78.8273L39.1192+78.8273C40.9713+78.8273+42.4726+80.3701+42.4726+82.2731L42.4726+96.548C42.4726+98.4511+40.9713+99.9938+39.1192+99.9938L39.1192+99.9938C37.2672+99.9938+35.7658+98.4511+35.7658+96.548L35.7658+82.2731C35.7658+80.3701+37.2672+78.8273+39.1192+78.8273Z" fill="#000000" stroke-linecap="round" fill-opacity="0" opacity="1" stroke-linejoin="round"/>
<path stroke="#000000" stroke-width="2.22893" d="M82.7797+78.8273L82.7797+78.8273C84.6317+78.8273+86.1331+80.3701+86.1331+82.2731L86.1331+96.548C86.1331+98.4511+84.6317+99.9938+82.7797+99.9938L82.7797+99.9938C80.9276+99.9938+79.4262+98.4511+79.4262+96.548L79.4262+82.2731C79.4262+80.3701+80.9276+78.8273+82.7797+78.8273Z" fill="#ffffff" stroke-linecap="round" fill-opacity="0" opacity="1" stroke-linejoin="round"/>
<path stroke="#000000" stroke-width="2.22893" d="M61.4407+78.8273L61.4407+78.8273C63.2927+78.8273+64.7941+80.3701+64.7941+82.2731L64.7941+96.548C64.7941+98.4511+63.2927+99.9938+61.4407+99.9938L61.4407+99.9938C59.5886+99.9938+58.0872+98.4511+58.0872+96.548L58.0872+82.2731C58.0872+80.3701+59.5886+78.8273+61.4407+78.8273Z" fill="#ffffff" stroke-linecap="round" fill-opacity="0" opacity="1" stroke-linejoin="round"/>
</g>
</svg>
